<svg style="max-height: 500px" version="1.0" xmlns="http://www.w3.org/2000/svg" viewBox="250.01218663644858 135.531336 297.53018826663487 238.44136799999998" preserveAspectRatio="xMidYMid meet" width="297.53018826663487" height="238.44136799999998">
 <g fill="#000000">
 </g>
 <g fill="#1f4aac">
  <path style="opacity: 1; visibility: visible;" data-index="4" d="M482.07 290.71 c-0.28 -0.97 -1.52 -1.52 -4.77 -2.14 -6.85 -1.31 -21.03 -5.47 -28.64 -8.51 -9.06 -3.60 -23.94 -11.28 -29.89 -15.50 -13.08 -9.34 -26.84 -27.47 -35.01 -46.21 -3.46 -7.89 -3.81 -9.62 -2.28 -11.21 1.38 -1.31 3.67 -1.25 10.17 0.42 11.55 2.97 18.33 3.53 40.68 3.39 19.72 -0.14 21.52 -0.07 26.57 1.31 10.59 2.91 18.68 8.65 22.90 16.26 4.01 7.33 4.57 11.48 4.57 35.28 l0 21.10 2.14 0.42 c1.18 0.21 2.91 0.42 3.81 0.42 1.18 0 1.66 0.42 1.66 1.38 0 1.25 -0.48 1.38 -4.01 1.38 -4.15 0 -5.81 0.83 -5.19 2.49 0.21 0.62 -0.14 0.97 -1.04 0.97 -0.76 0 -1.52 -0.55 -1.66 -1.25z"/>
 </g>
 <g fill="#076ad6">
  <path style="opacity: 1; visibility: visible;" data-index="6" d="M422.02 331.46 c0 -0.97 -0.69 -1.45 -2.56 -1.73 -5.60 -1.04 -19.16 -4.64 -25.60 -6.92 -26.01 -8.99 -43.79 -21.31 -56.32 -38.95 -10.03 -14.18 -19.99 -35.49 -16.53 -35.49 0.42 0 0.69 -0.48 0.69 -1.04 0 -1.25 2.49 -1.38 5.19 -0.35 1.04 0.42 5.67 1.52 10.24 2.49 7.89 1.73 10.03 1.87 33.69 2.28 24.98 0.48 25.32 0.55 30.93 2.35 9.48 3.18 16.33 8.58 20.48 16.26 3.53 6.50 3.94 9.82 4.43 33.42 l0.42 21.93 2.49 0.42 c1.38 0.21 3.32 0.42 4.43 0.42 1.38 0 1.87 0.35 1.87 1.38 0 1.18 -0.55 1.31 -5.33 1.52 -4.98 0.21 -5.40 0.35 -5.60 1.80 -0.28 1.94 -2.91 2.14 -2.91 0.21z"/>
 </g>
 <g fill="#0675ef">
  <path data-index="7" d="M482.21 288.08 c0 -0.62 0.35 -0.97 0.83 -0.83 1.25 0.42 1.45 1.94 0.28 1.94 -0.62 0 -1.11 -0.48 -1.11 -1.11z"/>
  <path style="opacity: 1; visibility: visible;" data-index="8" d="M492.94 288.57 c-1.11 -0.35 -3.53 -0.83 -5.33 -1.11 l-3.32 -0.42 0 -21.10 c0 -23.87 -0.55 -28.02 -4.57 -35.35 -4.22 -7.61 -12.38 -13.42 -22.90 -16.19 -4.98 -1.38 -7.06 -1.45 -26.57 -1.38 -22.28 0.14 -29.20 -0.42 -40.68 -3.39 -6.57 -1.66 -7.26 -1.73 -6.71 -0.35 0.28 0.76 -0.14 1.04 -1.66 1.04 -1.80 0 -2.08 -0.28 -2.08 -1.80 0 -1.45 0.28 -1.66 1.38 -1.31 1.66 0.55 1.73 -0.07 0.35 -3.39 -1.66 -3.87 -4.43 -14.60 -5.60 -21.52 -1.45 -8.65 -2.08 -32.72 -1.04 -37.84 1.04 -4.91 3.04 -6.78 7.26 -6.78 2.42 0 3.81 0.62 8.37 4.01 16.12 11.69 34.11 20.20 53.62 25.32 16.60 4.36 21.24 4.84 47.05 4.91 19.23 0.14 23.87 0.35 27.19 1.25 13.56 3.94 23.32 13.77 25.94 26.43 0.48 2.14 0.83 18.26 0.97 42.20 0.21 35.98 0.14 38.95 -0.97 40.68 -1.52 2.28 -2.91 2.97 -8.79 4.77 -3.87 1.11 -7.20 1.38 -22.21 1.59 -9.69 0.21 -18.54 0.07 -19.72 -0.28z"/>
 </g>
 <g fill="#0397ef">
  <path style="opacity: 1;" data-index="9" d="M441.39 330.01 c-3.25 -0.28 -7.89 -0.83 -10.38 -1.25 -2.49 -0.48 -4.84 -0.83 -5.26 -0.83 -0.48 0 -0.90 -6.78 -1.18 -21.93 -0.48 -23.73 -0.90 -27.05 -4.43 -33.55 -4.15 -7.68 -11 -13.08 -20.48 -16.26 -5.67 -1.87 -5.74 -1.87 -27.95 -2.08 -16.12 -0.14 -24.21 -0.48 -29.06 -1.25 -6.85 -1.11 -16.74 -3.25 -19.16 -4.22 -1.11 -0.42 -1.25 -0.28 -0.90 1.04 0.28 1.18 0.14 1.45 -0.69 1.18 -0.55 -0.21 -1.25 -0.42 -1.59 -0.42 -0.28 0 -0.69 -0.55 -0.90 -1.31 -0.21 -1.04 0 -1.18 1.11 -0.90 1.11 0.28 1.31 0.07 0.97 -0.97 -6.43 -20.27 -7.40 -26.22 -7.40 -47.05 0 -13.14 0.21 -16.67 1.04 -18.26 1.25 -2.42 2.97 -3.46 5.88 -3.46 2.56 0 3.74 0.62 9.27 4.64 11 8.09 28.02 16.81 42.20 21.59 4.22 1.38 8.16 2.84 8.86 3.25 0.62 0.35 2.63 4.01 4.43 8.16 8.23 18.89 21.93 36.94 35.08 46.35 13.49 9.55 36.53 19.16 56.45 23.52 6.43 1.45 6.57 1.52 7.20 3.81 0.28 1.31 0.48 8.99 0.35 17.09 -0.21 14.53 -0.21 14.74 -1.87 16.47 -2.49 2.70 -5.12 3.74 -12.45 5.26 -7.68 1.52 -20.69 2.14 -29.13 1.38z"/>
 </g>
 <g fill="#8ccbfd">
  <path style="opacity: 1; visibility: visible;" data-index="11" d="M378.78 370.83 c-26.84 -1.66 -61.23 -13.77 -80.18 -28.30 -19.58 -14.94 -35.56 -42.34 -42.41 -72.37 -1.52 -6.78 -1.73 -9.69 -2.08 -26.01 -0.35 -16.26 -0.21 -18.61 0.76 -20.62 1.31 -2.42 3.46 -3.53 7.06 -3.53 1.87 0 3.87 1.04 8.79 4.57 8.03 5.81 13.91 9.20 24.42 14.25 8.09 3.87 23.52 9.55 26.08 9.55 0.62 0 1.18 0.42 1.18 0.90 0 1.38 5.95 14.04 9.62 20.62 14.53 25.46 32.79 40.06 63.93 50.85 6.43 2.21 19.99 5.88 25.46 6.85 3.32 0.62 3.39 1.11 3.39 18.26 0 15.43 -0.48 18.26 -3.60 20.13 -6.09 3.67 -25.11 5.88 -42.41 4.84z"/>
 </g>
 <g fill="#fefefe">
 </g>
</svg>