<?xml version="1.0" encoding="utf-8"?>
<!DOCTYPE svg PUBLIC "-//W3C//DTD SVG 1.0//EN" "http://www.w3.org/TR/2001/REC-SVG-20010904/DTD/svg10.dtd">
<svg version="1.0" xmlns="http://www.w3.org/2000/svg" width="797px" height="642px" viewBox="0 0 797 642" preserveAspectRatio="xMidYMid meet">
 <g fill="#000000">
  <path d="M0 321.01 l0 -321.01 398.50 0 398.50 0 0 321.01 0 321.01 -398.50 0 -398.50 0 0 -321.01z m246.23 122.04 c6.57 -1.94 11.21 -7.82 10.17 -12.94 -0.62 -2.97 -3.46 -6.50 -6.71 -8.09 -1.45 -0.76 -5.74 -2.21 -9.48 -3.18 -3.67 -0.97 -7.26 -2.28 -7.89 -2.91 -1.59 -1.38 -1.66 -6.16 -0.07 -7.89 1.66 -1.87 9.75 -1.73 13.70 0.21 2.77 1.38 2.97 1.38 5.19 0.28 l2.21 -1.18 -1.59 -1.73 c-0.90 -0.97 -3.18 -2.49 -5.12 -3.39 -6.16 -2.91 -12.80 -1.94 -17.99 2.63 -5.05 4.43 -5.74 9.27 -2.01 13.70 2.42 2.84 5.88 4.50 13.35 6.50 8.92 2.42 9.06 2.49 9.06 6.92 0 5.05 -0.83 5.60 -7.89 5.53 -5.88 0 -9.13 -1.11 -10.93 -3.67 -0.90 -1.31 -1.04 -1.31 -3.60 -0.21 l-2.70 1.18 1.87 2.21 c2.35 2.84 6.09 5.12 10.10 6.16 4.22 1.18 6.02 1.18 10.31 -0.14z m51.89 -1.80 c8.09 -4.08 13.28 -12.87 12.25 -20.55 -0.97 -7.47 -6.36 -14.67 -13.49 -18.20 -4.77 -2.35 -11.62 -2.21 -16.81 0.35 -7.96 3.94 -13.49 12.80 -12.80 20.62 0.55 6.64 4.98 13.70 10.59 16.95 7.40 4.36 12.94 4.57 20.27 0.83z m32.59 -2.08 c0 -2.42 0.21 -6.02 0.42 -7.96 l0.48 -3.67 9.27 0 9.27 0 -0.21 -2.91 -0.21 -2.97 -9.13 -0.21 -9.20 -0.21 0 -6.50 0 -6.57 10.72 0 10.72 0 0 -3.46 0 -3.46 -14.87 0 -14.87 0 0 20.62 c0 11.35 0.21 20.89 0.48 21.10 0.21 0.28 1.94 0.48 3.81 0.48 l3.32 0 0 -4.29z m54.66 -13.35 l0 -17.57 7.13 -0.21 7.06 -0.21 0 -3.11 0 -3.11 -17.78 -0.21 -17.85 -0.14 0 3.46 0 3.46 6.92 0 6.92 0 0 17.64 0 17.64 3.81 0 3.81 0 0 -17.64z m34.45 11.97 l0.21 -5.40 5.67 0 5.67 0.07 3.32 5.47 3.32 5.53 3.04 0 c1.73 0 3.11 -0.14 3.11 -0.35 0 -0.21 -1.25 -2.35 -2.77 -4.77 -3.74 -5.88 -3.67 -7.89 0.28 -12.25 3.94 -4.43 5.12 -8.58 3.53 -13.01 -1.52 -4.43 -3.81 -7.06 -8.03 -9.41 -3.60 -2.01 -4.15 -2.08 -14.25 -2.28 l-10.59 -0.28 0 21.17 0 21.24 3.67 -0.21 3.60 -0.21 0.21 -5.33z m47.18 -15.43 l0 -21.10 -3.81 0 -3.81 0 0 21.10 0 21.10 3.81 0 3.81 0 0 -21.10z m22.14 15.64 c0 -5.40 0 -5.47 2.97 -8.99 2.70 -3.25 3.11 -3.53 5.60 -3.39 2.70 0.21 2.84 0.35 8.30 9.06 l5.53 8.79 3.32 0 c1.80 0 3.32 -0.21 3.32 -0.42 0 -0.21 -1.45 -2.63 -3.25 -5.33 -8.65 -13.35 -11.28 -17.99 -11.28 -19.86 0 -1.45 1.31 -3.67 5.05 -8.09 2.70 -3.39 5.40 -6.64 5.95 -7.33 0.83 -1.11 0.69 -1.18 -2.21 -1.18 l-3.18 0 -7.40 8.99 c-7.13 8.72 -7.47 8.99 -10.03 8.99 l-2.70 0 0 -8.99 0 -8.99 -3.81 0 -3.81 0 0 21.10 0 21.10 3.81 0 3.81 0 0 -5.47z m50.09 1.66 l1.73 -3.81 11.76 0 c12.80 0 12.11 -0.21 13.98 4.50 1.11 2.63 1.31 2.77 4.36 2.97 1.73 0.14 3.18 -0.07 3.18 -0.35 0 -0.28 -3.94 -9.82 -8.79 -21.10 l-8.79 -20.62 -3.81 0 -3.87 0 -8.65 20.48 c-4.77 11.28 -8.72 20.76 -8.86 21.10 -0.14 0.35 1.18 0.62 2.84 0.62 3.11 0 3.18 0 4.91 -3.81z m-140.72 -71.26 c11.76 -0.83 21.17 -3.60 22.97 -6.71 0.62 -1.11 0.97 -6.09 1.25 -17.85 l0.35 -16.26 7.96 0.07 c4.36 0 12.94 0.14 19.03 0.28 9.13 0.14 12.31 -0.07 18.06 -1.31 7.75 -1.59 10.31 -2.63 12.80 -5.33 1.66 -1.80 1.66 -1.80 1.73 -17.64 0 -8.65 0.28 -16.05 0.55 -16.33 0.28 -0.28 10.38 -0.55 22.42 -0.55 20.69 0 22.21 -0.07 27.05 -1.52 5.74 -1.73 7.96 -2.97 9.20 -5.19 1.18 -2.01 0.90 -72.92 -0.28 -78.39 -2.01 -9.69 -8.92 -18.68 -17.71 -23.11 -8.23 -4.15 -9.96 -4.36 -35.42 -4.50 -25.81 -0.14 -30.44 -0.62 -47.05 -4.98 -20.41 -5.33 -37.22 -13.49 -56.80 -27.60 -2.63 -1.87 -2.91 -1.94 -4.64 -0.97 -3.53 1.94 -3.94 3.87 -3.87 18.61 0 7.40 0.42 15.98 0.90 19.03 1.04 6.85 3.81 17.99 5.60 22.76 0.76 1.94 1.38 4.70 1.38 6.16 0 2.49 -0.07 2.56 -2.56 2.56 -3.46 0 -16.67 -4.50 -26.43 -8.92 -8.58 -3.94 -20.34 -10.72 -26.77 -15.50 -5.95 -4.36 -6.92 -4.84 -8.58 -3.94 -3.04 1.66 -3.46 3.87 -3.46 18.96 0 16.05 1.18 25.04 4.91 36.74 1.18 3.81 2.28 8.37 2.49 10.24 l0.35 3.25 -3.04 0 c-6.16 0 -27.74 -8.65 -41.10 -16.40 -2.63 -1.59 -7.68 -4.91 -11.21 -7.40 -7.06 -5.12 -8.92 -5.40 -11.14 -1.66 -2.70 4.29 -2.28 27.26 0.69 42.06 5.88 29.13 22.76 58.32 42.55 73.40 18.96 14.60 53.62 26.77 80.18 28.23 4.98 0.28 9.62 0.42 10.38 0.35 0.76 -0.14 4.01 -0.35 7.26 -0.62z"/>
  <path d="M284.21 436.55 c-6.50 -1.94 -9.55 -6.50 -9.55 -14.25 0 -5.81 1.87 -10.17 5.47 -12.52 2.01 -1.31 3.25 -1.59 8.16 -1.59 7.13 0 9.96 1.18 12.52 5.05 1.52 2.21 1.94 3.81 2.14 7.89 0.42 8.44 -2.56 13.70 -8.79 15.43 -2.97 0.83 -7.26 0.83 -9.96 0z"/>
  <path d="M419.95 417.18 l0 -8.99 6.57 0 c4.50 0 7.26 0.35 8.58 1.04 4.84 2.49 4.64 13.91 -0.35 16.19 -0.97 0.42 -4.64 0.76 -8.23 0.76 l-6.57 0 0 -8.99z"/>
  <path d="M545.17 427.49 c0 -1.18 1.18 -5.12 2.56 -8.72 l2.56 -6.50 2.70 0.21 2.70 0.21 2.35 6.09 c1.31 3.39 2.35 7.20 2.35 8.51 l0 2.35 -7.61 0 -7.61 0 0 -2.14z"/>
 </g>
 <g fill="#1f4aac">
  <path d="M482.07 290.71 c-0.28 -0.97 -1.52 -1.52 -4.77 -2.14 -6.85 -1.31 -21.03 -5.47 -28.64 -8.51 -9.06 -3.60 -23.94 -11.28 -29.89 -15.50 -13.08 -9.34 -26.84 -27.47 -35.01 -46.21 -3.46 -7.89 -3.81 -9.62 -2.28 -11.21 1.38 -1.31 3.67 -1.25 10.17 0.42 11.55 2.97 18.33 3.53 40.68 3.39 19.72 -0.14 21.52 -0.07 26.57 1.31 10.59 2.91 18.68 8.65 22.90 16.26 4.01 7.33 4.57 11.48 4.57 35.28 l0 21.10 2.14 0.42 c1.18 0.21 2.91 0.42 3.81 0.42 1.18 0 1.66 0.42 1.66 1.38 0 1.25 -0.48 1.38 -4.01 1.38 -4.15 0 -5.81 0.83 -5.19 2.49 0.21 0.62 -0.14 0.97 -1.04 0.97 -0.76 0 -1.52 -0.55 -1.66 -1.25z"/>
  <path d="M253.63 246.85 c-0.55 -2.08 -0.55 -10.79 0 -12.80 0.28 -0.90 0.90 -1.59 1.38 -1.59 0.76 0 0.97 1.66 0.97 7.96 0 6.30 -0.21 7.96 -0.97 7.96 -0.48 0 -1.11 -0.69 -1.38 -1.52z"/>
 </g>
 <g fill="#076ad6">
  <path d="M422.02 331.46 c0 -0.97 -0.69 -1.45 -2.56 -1.73 -5.60 -1.04 -19.16 -4.64 -25.60 -6.92 -26.01 -8.99 -43.79 -21.31 -56.32 -38.95 -10.03 -14.18 -19.99 -35.49 -16.53 -35.49 0.42 0 0.69 -0.48 0.69 -1.04 0 -1.25 2.49 -1.38 5.19 -0.35 1.04 0.42 5.67 1.52 10.24 2.49 7.89 1.73 10.03 1.87 33.69 2.28 24.98 0.48 25.32 0.55 30.93 2.35 9.48 3.18 16.33 8.58 20.48 16.26 3.53 6.50 3.94 9.82 4.43 33.42 l0.42 21.93 2.49 0.42 c1.38 0.21 3.32 0.42 4.43 0.42 1.38 0 1.87 0.35 1.87 1.38 0 1.18 -0.55 1.31 -5.33 1.52 -4.98 0.21 -5.40 0.35 -5.60 1.80 -0.28 1.94 -2.91 2.14 -2.91 0.21z"/>
 </g>
 <g fill="#0675ef">
  <path d="M482.21 288.08 c0 -0.62 0.35 -0.97 0.83 -0.83 1.25 0.42 1.45 1.94 0.28 1.94 -0.62 0 -1.11 -0.48 -1.11 -1.11z"/>
  <path d="M492.94 288.57 c-1.11 -0.35 -3.53 -0.83 -5.33 -1.11 l-3.32 -0.42 0 -21.10 c0 -23.87 -0.55 -28.02 -4.57 -35.35 -4.22 -7.61 -12.38 -13.42 -22.90 -16.19 -4.98 -1.38 -7.06 -1.45 -26.57 -1.38 -22.28 0.14 -29.20 -0.42 -40.68 -3.39 -6.57 -1.66 -7.26 -1.73 -6.71 -0.35 0.28 0.76 -0.14 1.04 -1.66 1.04 -1.80 0 -2.08 -0.28 -2.08 -1.80 0 -1.45 0.28 -1.66 1.38 -1.31 1.66 0.55 1.73 -0.07 0.35 -3.39 -1.66 -3.87 -4.43 -14.60 -5.60 -21.52 -1.45 -8.65 -2.08 -32.72 -1.04 -37.84 1.04 -4.91 3.04 -6.78 7.26 -6.78 2.42 0 3.81 0.62 8.37 4.01 16.12 11.69 34.11 20.20 53.62 25.32 16.60 4.36 21.24 4.84 47.05 4.91 19.23 0.14 23.87 0.35 27.19 1.25 13.56 3.94 23.32 13.77 25.94 26.43 0.48 2.14 0.83 18.26 0.97 42.20 0.21 35.98 0.14 38.95 -0.97 40.68 -1.52 2.28 -2.91 2.97 -8.79 4.77 -3.87 1.11 -7.20 1.38 -22.21 1.59 -9.69 0.21 -18.54 0.07 -19.72 -0.28z"/>
 </g>
 <g fill="#0397ef">
  <path d="M441.39 330.01 c-3.25 -0.28 -7.89 -0.83 -10.38 -1.25 -2.49 -0.48 -4.84 -0.83 -5.26 -0.83 -0.48 0 -0.90 -6.78 -1.18 -21.93 -0.48 -23.73 -0.90 -27.05 -4.43 -33.55 -4.15 -7.68 -11 -13.08 -20.48 -16.26 -5.67 -1.87 -5.74 -1.87 -27.95 -2.08 -16.12 -0.14 -24.21 -0.48 -29.06 -1.25 -6.85 -1.11 -16.74 -3.25 -19.16 -4.22 -1.11 -0.42 -1.25 -0.28 -0.90 1.04 0.28 1.18 0.14 1.45 -0.69 1.18 -0.55 -0.21 -1.25 -0.42 -1.59 -0.42 -0.28 0 -0.69 -0.55 -0.90 -1.31 -0.21 -1.04 0 -1.18 1.11 -0.90 1.11 0.28 1.31 0.07 0.97 -0.97 -6.43 -20.27 -7.40 -26.22 -7.40 -47.05 0 -13.14 0.21 -16.67 1.04 -18.26 1.25 -2.42 2.97 -3.46 5.88 -3.46 2.56 0 3.74 0.62 9.27 4.64 11 8.09 28.02 16.81 42.20 21.59 4.22 1.38 8.16 2.84 8.86 3.25 0.62 0.35 2.63 4.01 4.43 8.16 8.23 18.89 21.93 36.94 35.08 46.35 13.49 9.55 36.53 19.16 56.45 23.52 6.43 1.45 6.57 1.52 7.20 3.81 0.28 1.31 0.48 8.99 0.35 17.09 -0.21 14.53 -0.21 14.74 -1.87 16.47 -2.49 2.70 -5.12 3.74 -12.45 5.26 -7.68 1.52 -20.69 2.14 -29.13 1.38z"/>
  <path d="M422.71 328.97 c0 -0.55 0.35 -1.04 0.69 -1.04 0.42 0 0.69 0.48 0.69 1.04 0 0.55 -0.28 1.04 -0.69 1.04 -0.35 0 -0.69 -0.48 -0.69 -1.04z"/>
 </g>
 <g fill="#8ccbfd">
  <path d="M378.78 370.83 c-26.84 -1.66 -61.23 -13.77 -80.18 -28.30 -19.58 -14.94 -35.56 -42.34 -42.41 -72.37 -1.52 -6.78 -1.73 -9.69 -2.08 -26.01 -0.35 -16.26 -0.21 -18.61 0.76 -20.62 1.31 -2.42 3.46 -3.53 7.06 -3.53 1.87 0 3.87 1.04 8.79 4.57 8.03 5.81 13.91 9.20 24.42 14.25 8.09 3.87 23.52 9.55 26.08 9.55 0.62 0 1.18 0.42 1.18 0.90 0 1.38 5.95 14.04 9.62 20.62 14.53 25.46 32.79 40.06 63.93 50.85 6.43 2.21 19.99 5.88 25.46 6.85 3.32 0.62 3.39 1.11 3.39 18.26 0 15.43 -0.48 18.26 -3.60 20.13 -6.09 3.67 -25.11 5.88 -42.41 4.84z"/>
 </g>
 <g fill="#fefefe">
  <path d="M233.70 445.27 c-1.80 -0.48 -4.50 -1.73 -6.09 -2.77 -2.77 -1.87 -6.92 -6.85 -6.92 -8.37 0 -0.48 2.14 -1.80 4.84 -2.97 l4.84 -2.14 1.45 2.08 c1.80 2.49 4.22 3.81 8.23 4.36 3.94 0.55 6.50 -0.62 6.78 -3.18 0.28 -2.28 -0.83 -2.91 -8.99 -5.12 -11.97 -3.18 -15.77 -6.64 -15.77 -14.11 0 -4.64 1.31 -7.54 4.77 -10.52 3.53 -3.04 6.78 -4.01 13.28 -4.01 3.94 0 5.95 0.42 8.65 1.66 3.32 1.52 7.89 6.02 7.89 7.75 0 0.48 -2.08 2.01 -4.57 3.39 -4.43 2.42 -4.64 2.42 -5.53 1.18 -2.28 -3.32 -10.03 -4.77 -12.25 -2.35 -2.56 2.84 -0.76 4.29 7.96 6.64 12.11 3.18 15.77 6.23 16.33 13.56 0.42 5.26 -0.69 8.37 -4.01 11.35 -4.64 4.15 -13.21 5.67 -20.89 3.60z"/>
  <path d="M281.79 445.27 c-6.92 -2.28 -11.21 -5.88 -14.53 -12.45 -2.63 -5.05 -3.04 -13.70 -0.90 -19.23 1.94 -5.19 6.64 -10.38 11.62 -12.80 3.53 -1.73 4.70 -1.94 10.86 -1.94 5.81 0 7.47 0.28 10.10 1.59 8.16 4.01 13.01 11.35 13.63 20.48 0.62 10.17 -3.74 17.99 -12.52 22.48 -3.87 2.01 -5.47 2.42 -9.96 2.63 -3.32 0.14 -6.50 -0.14 -8.30 -0.76z m10.31 -10.79 c7.96 -2.21 11.28 -12.11 6.57 -19.30 -2.21 -3.32 -5.53 -4.91 -10.38 -4.91 -4.70 0 -7.82 1.94 -9.96 6.23 -3.81 7.40 -0.14 15.57 7.96 17.99 2.56 0.76 2.91 0.76 5.81 0z"/>
  <path d="M321.50 445.06 c-0.28 -0.21 -0.48 -10.65 -0.48 -23.18 l0 -22.69 16.95 0 16.95 0 0 5.53 0 5.53 -10.72 0 -10.72 0 0 4.50 0 4.43 9.20 0.21 9.13 0.21 0.21 5.05 0.21 4.98 -9.27 0 -9.34 0 -0.48 4.50 c-0.21 2.49 -0.28 5.40 0 6.57 0.90 4.22 0.14 4.84 -5.81 4.84 -2.97 0 -5.60 -0.21 -5.81 -0.48z"/>
  <path d="M375.67 427.90 l0 -17.64 -6.92 0 -6.92 0 0 -5.53 0 -5.53 19.92 0.14 19.86 0.21 0 5.19 0 5.19 -7.06 0.21 -7.13 0.21 0 17.57 0 17.64 -5.88 0 -5.88 0 0 -17.64z"/>
  <path d="M410.26 422.30 l0 -23.25 12.66 0.28 c12.45 0.21 12.66 0.21 16.33 2.28 10.03 5.53 12.11 18.06 4.43 26.64 l-3.11 3.46 4.22 6.64 c2.35 3.60 4.22 6.71 4.22 6.92 0 0.14 -2.97 0.28 -6.57 0.28 l-6.50 0 -3.32 -5.53 -3.32 -5.47 -3.60 -0.07 -3.60 0 -0.21 5.40 -0.21 5.33 -5.67 0.21 -5.74 0.21 0 -23.32z m22.42 1.04 c0.97 -0.48 2.28 -1.94 2.91 -3.25 0.97 -2.01 0.97 -2.84 0.35 -5.05 -1.04 -3.53 -3.53 -4.77 -9.41 -4.77 l-4.50 0 0 6.92 0 6.92 4.50 0 c2.42 0 5.19 -0.35 6.16 -0.76z"/>
  <path d="M457.31 422.37 l0 -23.18 5.88 0 5.88 0 0 23.18 0 23.18 -5.88 0 -5.88 0 0 -23.18z"/>
  <path d="M479.45 422.37 l0 -23.18 5.88 0 5.88 0 0 8.99 c0 4.98 0.28 8.99 0.62 8.99 0.35 0 3.94 -4.08 7.96 -8.99 l7.40 -8.99 6.99 0 c6.50 0 6.92 0.07 6.02 1.18 -0.55 0.69 -4.01 4.91 -7.68 9.34 l-6.71 8.16 4.01 6.36 c2.21 3.53 5.40 8.65 7.13 11.28 1.66 2.70 3.81 6.02 4.64 7.47 l1.59 2.56 -6.85 0 -6.85 0 -5.60 -8.79 c-3.04 -4.91 -5.81 -8.86 -6.23 -8.86 -0.35 0 -1.94 1.52 -3.53 3.32 -2.91 3.32 -2.91 3.39 -2.91 8.86 l0 5.47 -5.88 0 -5.88 0 0 -23.18z"/>
  <path d="M527.87 445.06 c0 -0.35 4.29 -10.72 9.48 -23.18 l9.55 -22.69 5.95 0 5.88 0 9.69 22.55 c5.26 12.45 9.75 22.90 9.82 23.25 0.14 0.35 -2.42 0.55 -6.09 0.42 l-6.36 -0.21 -1.18 -2.77 c-1.87 -4.70 -1.38 -4.50 -11.90 -4.50 l-9.69 0 -1.73 3.81 -1.73 3.81 -5.88 0 c-3.18 0 -5.81 -0.21 -5.81 -0.48z m30.44 -17.78 c0 -1.04 -4.84 -12.52 -5.40 -12.73 -0.35 -0.07 -1.66 2.56 -2.97 5.88 -1.31 3.32 -2.42 6.30 -2.56 6.64 -0.14 0.28 2.28 0.48 5.33 0.48 3.11 0 5.60 -0.14 5.60 -0.28z"/>
 </g>
</svg>
